<mxfile host="app.diagrams.net" modified="2022-10-28T08:26:19.342Z" agent="5.0 (Macintosh; Intel Mac OS X 10_15_7) AppleWebKit/605.1.15 (KHTML, like Gecko) Version/16.0 Safari/605.1.15" etag="nVi5zfTinfOkJC0TzC63" version="20.5.1" type="github" pages="2">
  <diagram id="zaVRvwqVkRB_e9_lwD2G" name="Top pizza">
    <mxGraphModel dx="1395" dy="759" grid="1" gridSize="10" guides="1" tooltips="1" connect="1" arrows="1" fold="1" page="1" pageScale="1" pageWidth="827" pageHeight="1169" math="0" shadow="0">
      <root>
        <mxCell id="0" />
        <mxCell id="1" parent="0" />
      </root>
    </mxGraphModel>
  </diagram>
  <diagram name="Copie de Page-1" id="X30XOvZPSu65740R6hGC">
    <mxGraphModel dx="1186" dy="645" grid="1" gridSize="10" guides="1" tooltips="1" connect="1" arrows="1" fold="1" page="1" pageScale="1" pageWidth="827" pageHeight="1169" math="0" shadow="0">
      <root>
        <mxCell id="1SvbguO98xKRe-5dHpA1-0" />
        <mxCell id="1SvbguO98xKRe-5dHpA1-1" parent="1SvbguO98xKRe-5dHpA1-0" />
        <mxCell id="iQo3UJNqTJOSZOWQSmYv-12" style="edgeStyle=orthogonalEdgeStyle;rounded=0;orthogonalLoop=1;jettySize=auto;html=1;" edge="1" parent="1SvbguO98xKRe-5dHpA1-1" source="iQo3UJNqTJOSZOWQSmYv-0" target="iQo3UJNqTJOSZOWQSmYv-6">
          <mxGeometry relative="1" as="geometry" />
        </mxCell>
        <mxCell id="iQo3UJNqTJOSZOWQSmYv-0" value="" style="ellipse;fillColor=strokeColor;" vertex="1" parent="1SvbguO98xKRe-5dHpA1-1">
          <mxGeometry x="100" y="190" width="30" height="30" as="geometry" />
        </mxCell>
        <mxCell id="iQo3UJNqTJOSZOWQSmYv-19" style="edgeStyle=orthogonalEdgeStyle;rounded=0;orthogonalLoop=1;jettySize=auto;html=1;entryX=0.5;entryY=1;entryDx=0;entryDy=0;" edge="1" parent="1SvbguO98xKRe-5dHpA1-1" source="iQo3UJNqTJOSZOWQSmYv-2" target="iQo3UJNqTJOSZOWQSmYv-17">
          <mxGeometry relative="1" as="geometry" />
        </mxCell>
        <mxCell id="iQo3UJNqTJOSZOWQSmYv-2" value="confirme abandon&amp;nbsp;" style="html=1;" vertex="1" parent="1SvbguO98xKRe-5dHpA1-1">
          <mxGeometry x="680" y="310" width="110" height="50" as="geometry" />
        </mxCell>
        <mxCell id="iQo3UJNqTJOSZOWQSmYv-15" style="edgeStyle=orthogonalEdgeStyle;rounded=0;orthogonalLoop=1;jettySize=auto;html=1;entryX=0;entryY=1;entryDx=0;entryDy=0;startArrow=none;" edge="1" parent="1SvbguO98xKRe-5dHpA1-1" source="iQo3UJNqTJOSZOWQSmYv-17" target="iQo3UJNqTJOSZOWQSmYv-10">
          <mxGeometry relative="1" as="geometry" />
        </mxCell>
        <mxCell id="iQo3UJNqTJOSZOWQSmYv-3" value="ATM vérifie le code" style="html=1;" vertex="1" parent="1SvbguO98xKRe-5dHpA1-1">
          <mxGeometry x="630" y="190" width="110" height="50" as="geometry" />
        </mxCell>
        <mxCell id="iQo3UJNqTJOSZOWQSmYv-14" style="edgeStyle=orthogonalEdgeStyle;rounded=0;orthogonalLoop=1;jettySize=auto;html=1;" edge="1" parent="1SvbguO98xKRe-5dHpA1-1" source="iQo3UJNqTJOSZOWQSmYv-4" target="iQo3UJNqTJOSZOWQSmYv-3">
          <mxGeometry relative="1" as="geometry" />
        </mxCell>
        <mxCell id="iQo3UJNqTJOSZOWQSmYv-4" value="client saisit code" style="html=1;" vertex="1" parent="1SvbguO98xKRe-5dHpA1-1">
          <mxGeometry x="460" y="190" width="110" height="40" as="geometry" />
        </mxCell>
        <mxCell id="iQo3UJNqTJOSZOWQSmYv-13" style="edgeStyle=orthogonalEdgeStyle;rounded=0;orthogonalLoop=1;jettySize=auto;html=1;entryX=0;entryY=0.5;entryDx=0;entryDy=0;" edge="1" parent="1SvbguO98xKRe-5dHpA1-1" source="iQo3UJNqTJOSZOWQSmYv-5" target="iQo3UJNqTJOSZOWQSmYv-4">
          <mxGeometry relative="1" as="geometry" />
        </mxCell>
        <mxCell id="iQo3UJNqTJOSZOWQSmYv-5" value="Atm lit carte" style="html=1;" vertex="1" parent="1SvbguO98xKRe-5dHpA1-1">
          <mxGeometry x="310" y="190" width="110" height="50" as="geometry" />
        </mxCell>
        <mxCell id="iQo3UJNqTJOSZOWQSmYv-11" style="edgeStyle=orthogonalEdgeStyle;rounded=0;orthogonalLoop=1;jettySize=auto;html=1;entryX=0;entryY=0.5;entryDx=0;entryDy=0;" edge="1" parent="1SvbguO98xKRe-5dHpA1-1" source="iQo3UJNqTJOSZOWQSmYv-6" target="iQo3UJNqTJOSZOWQSmYv-5">
          <mxGeometry relative="1" as="geometry" />
        </mxCell>
        <mxCell id="iQo3UJNqTJOSZOWQSmYv-6" value="client insère carte" style="html=1;" vertex="1" parent="1SvbguO98xKRe-5dHpA1-1">
          <mxGeometry x="160" y="190" width="110" height="50" as="geometry" />
        </mxCell>
        <mxCell id="iQo3UJNqTJOSZOWQSmYv-7" value="" style="swimlane;startSize=0;" vertex="1" parent="1SvbguO98xKRe-5dHpA1-1">
          <mxGeometry x="430" y="20" width="200" height="350" as="geometry" />
        </mxCell>
        <mxCell id="iQo3UJNqTJOSZOWQSmYv-8" value="client &lt;span style=&quot;white-space: pre;&quot;&gt;abandonne&lt;/span&gt;" style="html=1;shape=mxgraph.infographic.ribbonSimple;notch1=20;notch2=0;align=center;verticalAlign=middle;fontSize=14;fontStyle=0;fillColor=#FFFFFF;flipH=0;spacingRight=0;spacingLeft=14;" vertex="1" parent="iQo3UJNqTJOSZOWQSmYv-7">
          <mxGeometry x="5" y="270" width="170" height="40" as="geometry" />
        </mxCell>
        <mxCell id="iQo3UJNqTJOSZOWQSmYv-22" value="" style="shape=collate;whiteSpace=wrap;html=1;" vertex="1" parent="iQo3UJNqTJOSZOWQSmYv-7">
          <mxGeometry x="30" y="20" width="40" height="40" as="geometry" />
        </mxCell>
        <mxCell id="iQo3UJNqTJOSZOWQSmYv-23" value="après 60 sec" style="text;html=1;align=center;verticalAlign=middle;resizable=0;points=[];autosize=1;strokeColor=none;fillColor=none;" vertex="1" parent="iQo3UJNqTJOSZOWQSmYv-7">
          <mxGeometry x="5" y="100" width="90" height="30" as="geometry" />
        </mxCell>
        <mxCell id="iQo3UJNqTJOSZOWQSmYv-10" value="" style="ellipse;html=1;shape=endState;fillColor=strokeColor;" vertex="1" parent="1SvbguO98xKRe-5dHpA1-1">
          <mxGeometry x="970" y="190" width="30" height="30" as="geometry" />
        </mxCell>
        <mxCell id="iQo3UJNqTJOSZOWQSmYv-16" value="" style="endArrow=classic;html=1;rounded=0;entryX=0;entryY=0.5;entryDx=0;entryDy=0;exitX=1;exitY=0.5;exitDx=0;exitDy=0;exitPerimeter=0;" edge="1" parent="1SvbguO98xKRe-5dHpA1-1" source="iQo3UJNqTJOSZOWQSmYv-8" target="iQo3UJNqTJOSZOWQSmYv-2">
          <mxGeometry width="50" height="50" relative="1" as="geometry">
            <mxPoint x="490" y="270" as="sourcePoint" />
            <mxPoint x="540" y="220" as="targetPoint" />
            <Array as="points">
              <mxPoint x="600" y="400" />
              <mxPoint x="640" y="310" />
              <mxPoint x="660" y="370" />
            </Array>
          </mxGeometry>
        </mxCell>
        <mxCell id="iQo3UJNqTJOSZOWQSmYv-17" value="" style="rhombus;" vertex="1" parent="1SvbguO98xKRe-5dHpA1-1">
          <mxGeometry x="860" y="200" width="30" height="30" as="geometry" />
        </mxCell>
        <mxCell id="iQo3UJNqTJOSZOWQSmYv-18" value="" style="edgeStyle=orthogonalEdgeStyle;rounded=0;orthogonalLoop=1;jettySize=auto;html=1;entryX=0;entryY=1;entryDx=0;entryDy=0;endArrow=none;" edge="1" parent="1SvbguO98xKRe-5dHpA1-1" source="iQo3UJNqTJOSZOWQSmYv-3" target="iQo3UJNqTJOSZOWQSmYv-17">
          <mxGeometry relative="1" as="geometry">
            <mxPoint x="740" y="215" as="sourcePoint" />
            <mxPoint x="974.3933982822018" y="215.60660171779818" as="targetPoint" />
          </mxGeometry>
        </mxCell>
        <mxCell id="iQo3UJNqTJOSZOWQSmYv-21" style="edgeStyle=orthogonalEdgeStyle;rounded=0;orthogonalLoop=1;jettySize=auto;html=1;entryX=0.5;entryY=0;entryDx=0;entryDy=0;" edge="1" parent="1SvbguO98xKRe-5dHpA1-1" source="iQo3UJNqTJOSZOWQSmYv-20" target="iQo3UJNqTJOSZOWQSmYv-17">
          <mxGeometry relative="1" as="geometry" />
        </mxCell>
        <mxCell id="iQo3UJNqTJOSZOWQSmYv-20" value="message dépassementt délai" style="html=1;" vertex="1" parent="1SvbguO98xKRe-5dHpA1-1">
          <mxGeometry x="680" y="30" width="170" height="50" as="geometry" />
        </mxCell>
        <mxCell id="iQo3UJNqTJOSZOWQSmYv-24" value="" style="endArrow=classic;html=1;rounded=0;entryX=0;entryY=0.5;entryDx=0;entryDy=0;exitX=1;exitY=0.5;exitDx=0;exitDy=0;" edge="1" parent="1SvbguO98xKRe-5dHpA1-1" source="iQo3UJNqTJOSZOWQSmYv-22" target="iQo3UJNqTJOSZOWQSmYv-20">
          <mxGeometry width="50" height="50" relative="1" as="geometry">
            <mxPoint x="780" y="310" as="sourcePoint" />
            <mxPoint x="830" y="260" as="targetPoint" />
            <Array as="points">
              <mxPoint x="540" y="80" />
              <mxPoint x="580" y="40" />
              <mxPoint x="620" y="100" />
            </Array>
          </mxGeometry>
        </mxCell>
      </root>
    </mxGraphModel>
  </diagram>
</mxfile>
